# xmcd CD database file
#
# Track frame offsets:
#	150
#	21105
#	44352
#
# Disc length: 868 seconds
#
# Revision: 0
# Processed by: cddbd v1.5.1PL0 Copyright (c) Steve Scherf et al.
# Submitted via: CDex 1.51
#
DISCID=1c036203
DTITLE=谷村有美 - せめてものI LOVE YOU
DYEAR=1997
DGENRE=J-POP
TTITLE0=せめてものI LOVE YOU
TTITLE1=Stay with me
TTITLE2=せめてものI LOVE YOU(inst
EXTD=YEAR: 1997
EXTT0=
EXTT1=
EXTT2=
PLAYORDER=
